<svg width="306" height="237" viewBox="0 0 306 237" fill="none" xmlns="http://www.w3.org/2000/svg">
<path d="M193.589 236.397C193.589 236.397 188.899 224.881 202.969 216.243L193.589 236.397Z" fill="#E6E6E6"/>
<path d="M187.821 236.188C187.821 236.188 186.39 227.979 175.316 228.05L187.821 236.188Z" fill="#E6E6E6"/>
<path d="M293.608 236.397C293.608 236.397 287.411 221.182 306 209.771L293.608 236.397Z" fill="#E6E6E6"/>
<path d="M285.987 236.12C285.987 236.12 284.097 225.276 269.467 225.369L285.987 236.12Z" fill="#E6E6E6"/>
<path d="M177.715 65.8791L171.595 62.6367L172.053 62.3938L178.173 65.6366L177.715 65.8791Z" fill="#CBCBCB"/>
<path d="M172.377 65.8791L171.919 65.6366L178.038 62.3938L178.496 62.6367L172.377 65.8791Z" fill="#CBCBCB"/>
<path d="M126.832 40.7457L126.536 41.3206L128.265 42.2042L128.56 41.6293L126.832 40.7457Z" fill="#CBCBCB"/>
<path d="M162.673 59.7924L159.232 58.0336L159.527 57.4586L162.968 59.2174L162.673 59.7924ZM155.791 56.2747L152.35 54.5158L152.646 53.9409L156.086 55.6998L155.791 56.2747ZM148.909 52.757L145.469 50.9982L145.764 50.4233L149.205 52.1821L148.909 52.757ZM142.028 49.2394L138.587 47.4806L138.882 46.9057L142.323 48.6645L142.028 49.2394ZM135.146 45.7218L131.706 43.963L132.001 43.3881L135.442 45.1468L135.146 45.7218Z" fill="#CBCBCB"/>
<path d="M166.409 60.9763L166.113 61.5511L167.842 62.4348L168.137 61.8599L166.409 60.9763Z" fill="#CBCBCB"/>
<path d="M35.8843 83.9847C35.8843 84.1864 35.8778 84.3865 35.8646 84.5849C35.7912 85.729 35.5014 86.8489 35.0107 87.8856C35.0069 87.8945 35.0024 87.9027 34.9986 87.9109C34.9758 87.959 34.9523 88.0071 34.9282 88.0545C34.7823 88.3477 34.6204 88.6327 34.4432 88.9083C33.6341 90.1733 32.525 91.2201 31.214 91.956C29.903 92.692 28.4305 93.0945 26.9265 93.1279L27.0172 98.3292L28.1996 97.7081L28.4107 98.1084L27.0261 98.8358L27.1954 108.496L27.1973 108.625L26.283 108.828L26.2849 108.698L26.5728 93.1286C25.3622 93.1113 24.1672 92.8542 23.0571 92.3724C21.9469 91.8905 20.9438 91.1935 20.106 90.3218C20.0483 90.2624 19.9912 90.201 19.9354 90.1403L19.9291 90.1333C19.231 89.3739 18.6664 88.5024 18.2591 87.5555C18.268 87.5656 18.2775 87.5751 18.2864 87.5852C17.3659 85.438 17.3035 83.021 18.1119 80.8294C18.9203 78.6379 20.5383 76.8377 22.6343 75.7977C22.666 75.7819 22.6984 75.7667 22.7301 75.7509C24.8035 74.7547 27.1764 74.5719 29.3785 75.2388C31.5806 75.9056 33.4512 77.3735 34.6195 79.3514C34.6753 79.445 34.7292 79.5405 34.7812 79.6366C35.5069 80.9715 35.8861 82.4662 35.8843 83.9847Z" fill="#E5E5E5"/>
<path d="M34.6502 87.916C41.2869 87.916 46.667 82.5491 46.667 75.9287C46.667 69.3083 41.2869 63.9414 34.6502 63.9414C28.0135 63.9414 22.6334 69.3083 22.6334 75.9287C22.6334 82.5491 28.0135 87.916 34.6502 87.916Z" fill="#E5E5E5"/>
<path opacity="0.2" d="M25.7774 67.9221C24.6565 70.5377 24.5044 73.4656 25.3484 76.1827C26.1923 78.8997 27.9773 81.2289 30.3843 82.754C32.7914 84.2791 35.6636 84.9008 38.4878 84.5078C41.312 84.1149 43.9041 82.733 45.8009 80.6091C45.1162 82.2071 44.0914 83.6375 42.7975 84.8011C41.5035 85.9648 39.9715 86.8339 38.3074 87.3483C36.6434 87.8627 34.8871 88.01 33.1603 87.7801C31.4335 87.5502 29.7775 86.9485 28.3069 86.0167C26.8363 85.085 25.5864 83.8454 24.6438 82.384C23.7011 80.9225 23.0883 79.2741 22.8477 77.5529C22.607 75.8317 22.7444 74.0789 23.2503 72.416C23.7562 70.753 24.6185 69.2197 25.7774 67.9221Z" fill="black"/>
<path d="M35.3002 109.323L34.073 108.98L34.0755 108.848L34.4433 88.9084L34.4617 87.9142L34.4621 87.8852L34.5264 84.4014L34.6195 79.3521V79.3514L34.6827 75.9288H34.7166L34.7813 79.6368L34.8655 84.463L34.9258 87.8874V87.9127L34.9284 88.054V88.0547L35.045 94.73L35.0571 95.3933L35.298 109.19L35.3002 109.323Z" fill="#3F3D56"/>
<path d="M36.5944 93.9161L34.608 94.9594L34.8848 95.4839L36.8712 94.4406L36.5944 93.9161Z" fill="#3F3D56"/>
<path d="M190.423 37.1335C175.256 36.239 160.043 36.4723 144.91 37.8314C137.617 38.4891 130.207 39.1994 123.048 40.7865C117.282 42.0648 110.59 44.2254 106.997 49.2577C106.245 50.2717 105.738 51.4456 105.516 52.6875C105.294 53.9295 105.363 55.2058 105.717 56.4167C106.574 59.2855 108.705 61.6734 110.974 63.5437C116.198 67.8482 122.679 70.3531 128.468 73.773C139.038 80.017 148.711 88.4331 154.92 99.1243C157.653 103.829 160.252 110.084 157.209 115.268C154.229 120.347 147.575 122.096 142.149 122.921C135.348 123.956 128.342 123.675 121.513 123.096C114.025 122.399 106.58 121.312 99.2068 119.837C84.7625 117.07 70.4496 113.551 55.8046 111.95C48.4614 111.089 41.0564 110.875 33.6756 111.312C27.0099 111.76 20.2871 112.812 14.0252 115.21C9.19985 117.057 4.05627 119.853 1.44981 124.514C-1.06271 129.008 -0.0827477 134.19 2.65307 138.336C5.94482 143.325 11.0778 146.743 16.4145 149.242C22.4907 152.087 28.9899 153.931 35.4973 155.499C38.7977 156.294 42.1159 157.013 45.4344 157.729C46.1267 157.878 46.4225 156.817 45.7277 156.667C39.0356 155.225 32.3242 153.777 25.7982 151.689C19.7592 149.757 13.579 147.282 8.63356 143.224C4.63268 139.941 0.828678 135.147 1.06483 129.695C1.30288 124.2 5.92512 120.363 10.4555 118.001C16.1173 115.049 22.5499 113.612 28.853 112.86C36.0702 112.058 43.3486 111.959 50.5851 112.565C65.1956 113.674 79.4797 116.994 93.8048 119.89C107.721 122.703 122.072 125.308 136.334 124.587C141.987 124.301 148.044 123.493 153.035 120.647C155.32 119.343 157.381 117.506 158.542 115.114C159.588 112.838 159.919 110.3 159.491 107.833C158.682 102.415 155.455 97.3901 152.236 93.074C148.707 88.3927 144.614 84.1628 140.048 80.4799C135.038 76.4573 129.635 72.9465 123.921 70.0001C120.892 68.4088 117.819 66.8787 114.931 65.0356C112.163 63.2684 109.432 61.1421 107.741 58.2732C106.279 55.792 106.011 52.9601 107.534 50.4435C109.074 47.8982 111.728 46.123 114.346 44.8258C120.651 41.7003 127.983 40.8637 134.882 40.0064C149.696 38.172 164.625 37.4294 179.549 37.7848C183.176 37.8699 186.801 38.0197 190.423 38.2342C191.132 38.2758 191.13 37.175 190.423 37.1335V37.1335Z" fill="black"/>
<path d="M180.801 1.85349L183.092 0.0255993C181.313 -0.170282 180.581 0.798005 180.282 1.56441C178.892 0.988457 177.378 1.74327 177.378 1.74327L181.962 3.40332C181.731 2.78716 181.328 2.24954 180.801 1.85349Z" fill="#3F3D56"/>
<path d="M169.683 7.64023L171.974 5.81234C170.194 5.61646 169.463 6.58474 169.163 7.35115C167.773 6.7752 166.259 7.53002 166.259 7.53002L170.843 9.19006C170.612 8.5739 170.209 8.03628 169.683 7.64023Z" fill="#3F3D56"/>
<path d="M180.801 16.8027L183.092 14.9748C181.313 14.7789 180.581 15.7472 180.282 16.5136C178.892 15.9377 177.378 16.6925 177.378 16.6925L181.962 18.3525C181.731 17.7364 181.328 17.1988 180.801 16.8027Z" fill="#3F3D56"/>
<path d="M146.455 19.5108C150.267 19.5108 153.358 16.428 153.358 12.6251C153.358 8.82231 150.267 5.7395 146.455 5.7395C142.643 5.7395 139.553 8.82231 139.553 12.6251C139.553 16.428 142.643 19.5108 146.455 19.5108Z" fill="#FF6583"/>
<path d="M168.101 33.843H134.238C134.196 33.8436 134.153 33.8402 134.112 33.833L150.127 6.1619C150.225 5.98953 150.367 5.84613 150.538 5.74635C150.71 5.64657 150.905 5.59399 151.103 5.59399C151.302 5.59399 151.497 5.64657 151.668 5.74635C151.84 5.84613 151.981 5.98953 152.079 6.1619L162.827 24.7307L163.342 25.6191L168.101 33.843Z" fill="#145DA0"/>
<path d="M186.953 33.8433H157.666L163.341 25.6201L163.749 25.0275L171.145 14.3112C171.275 14.1472 171.439 14.0125 171.626 13.9159C171.812 13.8193 172.017 13.7629 172.226 13.7505C172.436 13.738 172.646 13.7697 172.843 13.8434C173.039 13.9172 173.218 14.0315 173.367 14.1788C173.406 14.2206 173.441 14.2648 173.474 14.3112L186.953 33.8433Z" fill="#145DA0"/>
<path d="M138.642 97.3075C141.852 98.9078 143.806 101.021 143.806 103.34C143.806 108.333 134.747 112.382 123.573 112.382C118.714 112.382 114.257 111.616 110.769 110.34C114.474 112.188 119.852 113.351 125.839 113.351C137.013 113.351 146.072 109.302 146.072 104.308C146.072 101.486 143.177 98.9657 138.642 97.3075Z" fill="#F1F1F1"/>
<path d="M145.782 100.738C149.403 102.544 151.608 104.928 151.608 107.544C151.608 113.179 141.387 117.747 128.778 117.747C123.295 117.747 118.266 116.883 114.33 115.444C118.511 117.528 124.579 118.841 131.335 118.841C143.944 118.841 154.165 114.272 154.165 108.637C154.165 105.452 150.898 102.609 145.782 100.738Z" fill="#F1F1F1"/>
<path d="M135.91 98.8185C138.171 99.9459 139.548 101.435 139.548 103.068C139.548 106.587 133.166 109.439 125.293 109.439C122.226 109.478 119.175 108.992 116.273 108.001C118.883 109.302 122.671 110.121 126.89 110.121C134.762 110.121 141.144 107.269 141.144 103.751C141.144 101.762 139.105 99.9867 135.91 98.8185Z" fill="#F1F1F1"/>
<path d="M104.138 98.1726C104.138 98.1726 104.634 105.418 118.879 105.418C133.123 105.418 137.375 98.1726 137.375 98.1726H104.138Z" fill="#3F3D56"/>
<path d="M124.356 79.1629C122.299 77.6045 119.718 76.9002 117.153 77.1975C119.445 77.7488 121.47 79.088 122.871 80.9798C124.273 82.8717 124.961 85.1955 124.816 87.5433C124.671 89.8911 123.702 92.113 122.078 93.819C120.455 95.525 118.281 96.6061 115.938 96.8726C118.179 97.4123 120.538 97.1658 122.618 96.1746C124.699 95.1834 126.374 93.508 127.361 91.4299C128.349 89.3519 128.589 86.998 128.042 84.764C127.495 82.53 126.193 80.5521 124.356 79.1629Z" fill="#3F3D56"/>
<path d="M119.688 75.89H118.717V98.9509H119.688V75.89Z" fill="#3F3D56"/>
<path d="M183.514 58.7557L183.509 58.7468L183.496 58.1835L186.538 53.7769L183.499 57.7619L183.489 57.8809L183.385 53.3768L186.012 48.8082L183.377 52.5856L183.405 43.2542L183.404 43.2231L183.404 43.2537L183.229 50.6081L180.834 47.6207L183.221 51.2416L183.169 55.2705L180.965 51.3385L183.161 55.8628L183.132 58.103L183.051 64.3095L183.045 64.7733C183.248 64.7748 183.449 64.7714 183.648 64.7632L183.51 58.8017L183.514 58.7557Z" fill="#CBCBCB"/>
<path d="M168.946 60.6933L168.941 60.6844L168.928 60.1211L171.971 55.7145L168.932 59.6995L168.921 59.8186L168.817 55.3145L171.445 50.7458L168.809 54.5232L168.837 45.1918L168.837 45.1608L168.836 45.1913L168.661 52.5457L166.266 49.5584L168.654 53.1793L168.601 57.2081L166.397 53.2761L168.593 57.8004L168.564 60.0406L168.483 66.2471L168.478 66.7109C168.681 66.7124 168.881 66.7091 169.08 66.7008L168.942 60.7393L168.946 60.6933Z" fill="#CBCBCB"/>
<path d="M176.068 54.5576L176.063 54.5487L176.05 53.9854L179.093 49.5787L176.054 53.5637L176.043 53.6828L175.939 49.1787L178.567 44.61L175.931 48.3874L175.959 39.0561L175.959 39.025L175.958 39.0556L175.783 46.4099L173.388 43.4226L175.776 47.0435L175.723 51.0723L173.519 47.1404L175.715 51.6647L175.686 53.9049L175.606 60.1114L175.6 60.5751C175.803 60.5767 176.004 60.5733 176.202 60.565L176.065 54.6036L176.068 54.5576Z" fill="#CBCBCB"/>
<path d="M55.7511 161.791C57.8966 161.791 59.6359 160.056 59.6359 157.916C59.6359 155.776 57.8966 154.041 55.7511 154.041C53.6056 154.041 51.8663 155.776 51.8663 157.916C51.8663 160.056 53.6056 161.791 55.7511 161.791Z" fill="#145DA0"/>
<path d="M263.107 229.449L259.51 230.782L252.644 217.579L257.953 215.611L263.107 229.449Z" fill="#FFB7B7"/>
<path d="M265.319 232.587L253.722 236.885L253.668 236.739C253.223 235.544 253.272 234.223 253.804 233.065C254.336 231.907 255.307 231.007 256.504 230.563L256.505 230.563L263.587 227.938L265.319 232.587Z" fill="#2F2E41"/>
<path d="M227.713 233.175L223.876 233.175L222.051 218.412L227.714 218.413L227.713 233.175Z" fill="#FFB7B7"/>
<path d="M228.379 236.885L216.007 236.884V236.728C216.008 235.454 216.515 234.233 217.418 233.332C218.321 232.431 219.546 231.925 220.823 231.925H220.823L228.379 231.925L228.379 236.885Z" fill="#2F2E41"/>
<path d="M245.279 130.792L244.027 128.294L233.387 133.602L233.699 135.787L231.665 138.44C231.665 138.44 228.223 140.313 228.849 146.557L229.475 152.488L230.257 160.137L224.78 179.024L221.964 203.998L219.93 224.134L229.788 223.665L238.863 190.887L254.824 226.163L265.777 223.353L250.755 188.389L248.877 173.717C248.877 173.717 250.129 165.912 244.183 160.605L245.122 157.795V154.333L248.252 137.816L245.279 130.792Z" fill="#2F2E41"/>
<path opacity="0.2" d="M245.571 166.487L238.686 190.837L239.04 190.936L245.925 166.586L245.571 166.487Z" fill="black"/>
<path d="M244.966 160.137H229.631V161.698H244.966V160.137Z" fill="#3F3D56"/>
<path d="M229.631 162.634C229.977 162.634 230.257 161.935 230.257 161.073C230.257 160.211 229.977 159.512 229.631 159.512C229.285 159.512 229.005 160.211 229.005 161.073C229.005 161.935 229.285 162.634 229.631 162.634Z" fill="#3F3D56"/>
<path d="M240.548 126.755C244.59 124.55 246.076 119.494 243.866 115.462C241.656 111.429 236.588 109.947 232.545 112.151C228.503 114.356 227.017 119.412 229.227 123.444C231.437 127.477 236.505 128.959 240.548 126.755Z" fill="#FFB7B7"/>
<path d="M249.311 116.482C253.387 116.482 256.691 113.186 256.691 109.121C256.691 105.055 253.387 101.759 249.311 101.759C245.236 101.759 241.932 105.055 241.932 109.121C241.932 113.186 245.236 116.482 249.311 116.482Z" fill="#2F2E41"/>
<path d="M258.676 108.332C258.967 109.308 259.053 110.333 258.926 111.343C258.8 112.352 258.466 113.325 257.944 114.2C257.422 115.074 256.724 115.831 255.894 116.423C255.064 117.014 254.12 117.428 253.121 117.637C252.123 117.847 251.092 117.847 250.093 117.639C249.095 117.431 248.15 117.018 247.319 116.428C246.489 115.837 245.79 115.081 245.267 114.207C244.744 113.333 244.408 112.361 244.28 111.351C244.809 113.122 245.986 114.63 247.578 115.575C249.169 116.521 251.059 116.835 252.872 116.454C254.685 116.074 256.288 115.028 257.363 113.523C258.438 112.019 258.907 110.166 258.676 108.332Z" fill="#2F2E41"/>
<path d="M229.522 117.143C229.305 119.046 229.724 120.967 230.713 122.608C231.702 124.249 233.206 125.52 234.992 126.222C236.778 126.924 238.747 127.019 240.592 126.492C242.438 125.965 244.058 124.846 245.201 123.307C246.344 121.769 246.947 119.897 246.916 117.982C246.884 116.067 246.221 114.216 245.028 112.716C243.835 111.215 242.179 110.149 240.317 109.683C238.455 109.216 236.491 109.375 234.729 110.136C233.271 108.963 231.464 109.326 229.996 110.564C228.334 111.963 227.841 112.924 226.553 115.225C227.82 115.402 228.255 116.965 229.522 117.143Z" fill="#2F2E41"/>
<path d="M260.185 142.167C260.092 144.634 259.907 149.488 259.907 149.735C259.907 149.996 256.218 157.616 254.624 160.895V160.897C254.51 161.128 254.409 161.338 254.319 161.522C254.196 161.777 254.002 161.99 253.76 162.138C253.519 162.286 253.24 162.362 252.957 162.357L245.992 162.232C245.609 162.226 245.244 162.072 244.972 161.803C244.7 161.534 244.543 161.171 244.534 160.789L243.757 130.223C243.754 130.122 243.772 130.022 243.809 129.928C243.846 129.834 243.901 129.748 243.971 129.676C244.042 129.604 244.126 129.547 244.219 129.507C244.312 129.468 244.412 129.448 244.514 129.448H253.495C253.875 129.448 254.246 129.555 254.568 129.756C254.889 129.957 255.147 130.245 255.312 130.585L259.623 139.482C260.027 140.318 260.22 141.24 260.185 142.167V142.167Z" fill="#145DA0"/>
<path d="M244.412 158.691C242.625 157.611 241.019 156.257 239.654 154.679C236.48 151.119 234.55 146.627 234.153 141.88C233.799 137.817 234.607 134.798 236.555 132.905C239.031 130.499 242.4 130.848 242.543 130.864L242.694 130.882L244.977 132.809L244.331 133.57L242.288 131.846C241.662 131.815 239.11 131.808 237.245 133.627C235.528 135.302 234.823 138.05 235.15 141.793C235.527 146.314 237.36 150.591 240.375 153.987C241.676 155.488 243.2 156.78 244.895 157.817L244.412 158.691Z" fill="#145DA0"/>
<path d="M257.373 147.079L245.203 149.572L245.27 149.898L257.44 147.404L257.373 147.079Z" fill="#3F3D56"/>
<path d="M249.352 129.441L249.019 129.455L249.809 148.771L250.142 148.757L249.352 129.441Z" fill="#3F3D56"/>
<path d="M260.185 142.167C260.092 144.634 259.907 149.488 259.907 149.735C259.907 149.996 256.218 157.616 254.624 160.895L257.594 143.689C257.709 143.027 257.999 142.407 258.432 141.893C258.866 141.379 259.429 140.99 260.063 140.764C260.163 141.225 260.204 141.696 260.185 142.167Z" fill="#3F3D56"/>
<path d="M241.934 178.227C242.197 177.889 242.382 177.497 242.477 177.08C242.572 176.662 242.574 176.229 242.483 175.811C242.392 175.393 242.21 175 241.951 174.659C241.691 174.319 241.359 174.039 240.979 173.84L241.583 167.178L237.614 165.825L236.894 175.245C236.601 175.904 236.561 176.647 236.781 177.333C237 178.019 237.465 178.601 238.086 178.969C238.707 179.336 239.442 179.464 240.151 179.327C240.861 179.19 241.495 178.799 241.934 178.227Z" fill="#FFB7B7"/>
<path d="M242.452 171.78L235.419 171.526L235.717 137.692C235.712 136.735 236.009 135.8 236.565 135.02C237.122 134.24 237.91 133.654 238.819 133.345C239.668 133.064 240.585 133.063 241.434 133.343C242.398 133.668 243.225 134.304 243.786 135.151C244.347 135.997 244.609 137.006 244.532 138.018L242.452 171.78Z" fill="#CBCBCB"/>
<path d="M304.151 237H164.028C163.931 237 163.837 236.961 163.768 236.893C163.699 236.824 163.661 236.73 163.661 236.633C163.661 236.536 163.699 236.442 163.768 236.374C163.837 236.305 163.931 236.266 164.028 236.266H304.151C304.249 236.266 304.342 236.305 304.411 236.374C304.48 236.442 304.519 236.536 304.519 236.633C304.519 236.73 304.48 236.824 304.411 236.893C304.342 236.961 304.249 237 304.151 237Z" fill="#CBCBCB"/>
</svg>
