<svg width="255" height="234" viewBox="0 0 255 234" fill="none" xmlns="http://www.w3.org/2000/svg">
<g clip-path="url(#clip0_89_91)">
<path d="M154.624 70.5139C154.941 70.5315 155.255 70.4311 155.523 70.2263C155.792 70.0215 156.001 69.7223 156.124 69.3691C156.246 69.0159 156.276 68.6259 156.208 68.2519C156.141 67.8778 155.979 67.5378 155.746 67.278C155.707 67.0909 155.679 66.9565 155.64 66.7694C155.654 66.7287 155.668 66.688 155.682 66.6473C157.108 62.5489 161.941 62.5771 163.355 66.6817C164.61 70.3247 166.208 73.9739 166.601 77.8257C166.774 79.5284 166.701 81.2543 166.385 82.9268C169.333 75.1771 170.863 66.7542 170.873 58.2291C170.874 56.0898 170.775 53.9522 170.578 51.8262C170.415 50.0833 170.188 48.3528 169.899 46.6348C168.319 37.3127 164.927 28.5753 160.002 21.14C157.618 19.5723 155.69 17.1614 154.478 14.2323C154.039 13.1794 153.728 12.0555 153.556 10.8954C153.825 10.9379 154.57 6.00149 154.367 5.69862C154.742 5.01318 155.413 4.67246 155.822 4.0036C157.858 0.677153 160.662 1.25797 162.126 5.77836C165.254 7.68095 165.284 10.8363 163.365 13.871C162.144 15.8017 161.977 18.4141 160.905 20.4811C161.016 20.6511 161.13 20.8159 161.24 20.9859C163.255 24.1085 165.011 27.4615 166.483 30.9969C166.067 27.0758 166.682 22.3519 167.73 19.3068C168.923 15.8373 171.16 12.9153 173.129 9.91586C175.495 6.31312 180.346 7.88543 180.763 12.4525C180.767 12.4967 180.771 12.5409 180.775 12.5851C180.482 12.784 180.196 12.9951 179.916 13.2185C179.564 13.5019 179.291 13.9069 179.133 14.3804C178.975 14.8539 178.94 15.3738 179.031 15.8719C179.123 16.3701 179.337 16.8233 179.646 17.1721C179.955 17.521 180.344 17.7492 180.763 17.827L180.805 17.8349C180.701 19.1057 180.517 20.3652 180.254 21.6023C182.781 33.3797 177.326 37.6693 169.537 37.862C169.365 37.9682 169.198 38.0745 169.026 38.1755C170.505 43.2272 171.432 48.4893 171.786 53.8294C171.985 56.9799 171.974 60.1447 171.75 63.2929L171.764 63.1814C172.328 59.6806 173.877 56.5219 176.15 54.2385C179.526 50.8963 184.295 49.6655 187.937 46.979C189.69 45.6857 191.936 47.3569 191.63 49.8066C191.625 49.8457 191.62 49.8848 191.615 49.9239C191.072 50.1904 190.544 50.4974 190.033 50.8431C189.74 51.0421 189.454 51.2532 189.173 51.4765C188.821 51.76 188.549 52.165 188.391 52.6385C188.233 53.1119 188.198 53.6318 188.289 54.13C188.381 54.6281 188.595 55.0813 188.904 55.4302C189.213 55.7791 189.602 56.0073 190.021 56.0851L190.063 56.093C190.094 56.0983 190.121 56.1036 190.152 56.109C189.224 58.7784 187.922 61.2355 186.303 63.3727C184.723 73.6539 177.938 74.6293 170.679 71.6353H170.675C169.878 75.8065 168.724 79.8667 167.232 83.7504H154.932C154.888 83.5857 154.848 83.4156 154.808 83.2509C155.947 83.3372 157.09 83.2551 158.212 83.0065C157.299 81.6568 156.387 80.2965 155.474 78.9469C155.454 78.9216 155.434 78.895 155.417 78.8672C154.954 78.1764 154.486 77.4909 154.024 76.8002L154.023 76.7994C153.999 74.6819 154.2 72.5695 154.623 70.5142L154.624 70.5139Z" fill="#F2F2F2"/>
<path d="M194.114 32.5735C191.827 22.5235 210.273 13.9053 215.117 21.9987C215.791 20.848 218.28 20.1491 219.422 20.5021C220.564 20.8551 221.524 21.7375 222.462 22.5917C223.75 23.7847 225.085 25.0201 225.876 26.7355C226.673 28.4438 226.796 30.7734 225.724 32.2558C224.875 33.4347 222.368 34.1972 221.091 34.5078C220.201 34.7266 219.451 34.9031 218.807 35.0301C218.222 34.0139 217.952 32.7818 218.045 31.5499C217.612 31.9025 217.248 32.3664 216.981 32.9083C216.714 33.4502 216.549 34.0567 216.499 34.6842C216.482 34.9454 223.697 66.9453 223.697 66.9453C222.83 67.54 221.918 68.034 220.974 68.4206C219.105 64.9785 217.674 61.2191 216.728 57.2669C216.51 59.9096 216.538 62.5733 216.81 65.2087C216.954 66.6864 217.162 68.1543 217.431 69.6066C208.856 71.8374 195.959 71.1032 190.348 61.6155C190.347 61.5762 190.346 61.537 190.346 61.4977C190.341 61.1232 190.229 60.7622 190.028 60.4765C189.827 60.1908 189.55 59.9981 189.244 59.9316C188.938 59.8651 188.623 59.9287 188.352 60.1117C188.081 60.2947 187.871 60.5856 187.758 60.9346C187.622 61.3532 187.497 61.7156 187.385 62.0037C185.751 54.9585 187.865 46.8051 194.114 32.5735Z" fill="#2F2E41"/>
<path d="M179.523 201.066V201.395C179.513 201.286 179.513 201.175 179.523 201.066Z" fill="#2F2E41"/>
<path d="M187.92 144.19C188.138 144.118 188.36 144.066 188.585 144.034C188.327 144.085 188.106 144.136 187.92 144.19Z" fill="#2F2E41"/>
<path d="M187.726 144.249C187.785 144.229 187.85 144.209 187.92 144.19C187.855 144.21 187.793 144.225 187.726 144.249Z" fill="#2F2E41"/>
<path d="M249.763 233.999H218.334C217.885 233.567 217.574 232.963 217.451 232.288C217.329 231.612 217.403 230.906 217.661 230.289C218.519 227.915 216.837 225.747 216.837 225.747C216.266 224.94 215.869 223.976 215.681 222.94C215.493 221.904 215.52 220.828 215.76 219.808C216.592 216.303 213.329 206.408 213.329 206.408C213.329 206.408 211.57 219.184 209.414 233.999H179.523C179.023 232.971 178.759 231.8 178.759 230.608C178.759 229.416 179.023 228.245 179.523 227.217C181.265 223.657 179.523 222.975 179.523 222.975C179.523 222.975 177.781 218.991 179.523 216.098C181.265 213.206 179.523 201.395 179.523 201.395C179.589 201.917 180.085 200.968 180.849 198.977C182.012 195.949 183.79 190.502 185.586 184.179C186.87 179.666 188.164 174.701 189.246 169.846H189.249C189.532 168.57 189.801 167.307 190.055 166.054C190.551 163.599 190.977 161.212 191.3 158.972C192.001 154.146 192.232 150 191.693 147.303C191.247 145.059 190.27 143.822 188.585 144.034C189.488 143.854 190.811 143.683 192.442 143.521C192.736 143.493 193.04 143.464 193.355 143.433C205.518 142.325 231.612 141.689 231.612 141.689L239.604 158.94L249.726 180.793C249.726 180.793 249.451 210.108 249.763 233.999Z" fill="#2F2E41"/>
<path d="M216.216 67.1267L197.802 62.4186L194.146 71.289L181.834 79.8807C181.834 79.8807 189.77 118.993 189.725 124.494C189.61 138.461 171.07 169.769 185.074 167.36C199.078 164.952 201.922 154.863 206.418 156.458C210.473 157.897 215.423 164.297 218.738 159.72C222.052 155.142 223.219 160.428 225.315 160.611C226.311 160.697 225.711 154.831 228.217 160.793C230.723 166.755 244.012 158.729 239.508 153.301C232.007 144.26 230.483 77.614 230.483 77.614L222.132 74.5172L216.216 67.1267Z" fill="#E6E6E6"/>
<path d="M181.485 209.167C182.225 208.104 182.592 206.735 182.507 205.351C182.422 203.967 181.892 202.677 181.03 201.757C180.853 201.573 180.663 201.407 180.462 201.261L183.541 183.049L176.424 177.914L174.444 203.413C174.006 204.461 173.868 205.654 174.052 206.806C174.236 207.958 174.731 209.005 175.46 209.782C175.878 210.22 176.364 210.554 176.89 210.765C177.415 210.976 177.97 211.061 178.523 211.014C179.075 210.967 179.615 210.789 180.11 210.49C180.606 210.192 181.048 209.778 181.411 209.274C181.436 209.239 181.461 209.203 181.485 209.167Z" fill="#A0616A"/>
<path d="M203.585 113.168C203.541 112.583 202.921 112.317 202.062 111.95C201.2 111.63 200.38 111.162 199.628 110.56C197.727 108.905 198.476 107.174 199.51 104.782C199.712 104.316 199.922 103.832 200.119 103.329C200.705 101.838 199.773 95.6892 197.344 85.0493C196.596 81.7738 196.598 79.4603 196.081 77.9254C195.566 76.3905 194.534 75.6341 191.722 75.4759C188.323 75.2691 184.995 76.6951 182.467 79.4413C182.398 79.5141 182.328 79.5933 182.259 79.6692C182.131 79.8148 182.005 79.9635 181.881 80.1155C179.543 82.9503 178.205 86.7651 178.147 90.7617L178.134 91.4421L177.554 123.95L175.923 152.478L173.676 191.774L175.341 191.873L181.984 192.271L182.79 192.319L184.701 182.654L187.001 171.023L187.847 166.751L190.47 153.497L191.693 147.303L192.442 143.521L192.746 141.977L194.232 134.47C194.267 134.312 197.685 118.055 201.626 115.336C203.097 114.323 203.627 113.735 203.585 113.168Z" fill="#E6E6E6"/>
<path d="M247.805 208.974C246.975 208.012 246.488 206.698 246.449 205.311C246.411 203.924 246.822 202.574 247.597 201.547C247.757 201.341 247.931 201.152 248.118 200.981L243.434 183.272L250.053 177.246L254.293 202.341C254.822 203.326 255.065 204.494 254.985 205.664C254.905 206.833 254.506 207.938 253.85 208.805C253.473 209.294 253.02 209.689 252.516 209.967C252.013 210.245 251.469 210.401 250.915 210.426C250.361 210.45 249.809 210.343 249.29 210.111C248.771 209.878 248.295 209.525 247.889 209.07C247.86 209.039 247.832 209.006 247.805 208.974Z" fill="#A0616A"/>
<path d="M251.043 170.548C251.043 170.548 245.881 148.657 247.455 146.287C249.029 143.917 244.38 143.454 246.383 139.04C248.387 134.627 245.621 133.888 245.621 133.888L244.121 123.74L241.438 98.8142L241.356 98.0729L240.576 90.8211C240.358 88.7498 239.796 86.7528 238.923 84.9494C238.05 83.146 236.884 81.5733 235.495 80.3253C235.425 80.2599 235.352 80.197 235.28 80.1341C234.949 79.8475 234.612 79.582 234.267 79.3375C231.692 77.5063 228.668 76.8139 225.715 77.3795C220.15 78.424 221.882 80.925 220.98 87.6251C219.513 98.5194 219.133 104.752 219.848 106.16C220.088 106.634 220.342 107.088 220.583 107.524C221.825 109.772 222.723 111.393 220.98 113.289C220.285 113.981 219.512 114.551 218.684 114.982C217.865 115.46 217.272 115.803 217.279 116.391C217.289 116.961 217.868 117.475 219.419 118.291C221.299 119.282 223.318 123.03 224.971 126.86C226.283 129.946 227.453 133.117 228.476 136.359L242.688 184.536L245.006 192.393L245.806 192.24L252.372 190.985L254.019 190.671L251.043 170.548Z" fill="#E6E6E6"/>
<path d="M208.448 62.086C216.745 62.086 223.471 53.979 223.471 43.9785C223.471 33.978 216.745 25.871 208.448 25.871C200.151 25.871 193.424 33.978 193.424 43.9785C193.424 53.979 200.151 62.086 208.448 62.086Z" fill="#A0616A"/>
<path d="M185.915 33.9854C183.628 23.9353 202.074 15.3172 206.917 23.4105C207.591 22.2599 210.08 21.561 211.222 21.914C212.364 22.2669 213.325 23.1493 214.262 24.0035C215.55 25.1966 216.886 26.4319 217.676 28.1473C218.473 29.8557 218.596 32.1853 217.524 33.6677C216.675 34.8466 214.168 35.609 212.891 35.9196C212.001 36.1385 211.252 36.3149 210.607 36.442C210.022 35.4258 209.753 34.1937 209.846 32.9618C209.412 33.3143 209.049 33.7782 208.781 34.3201C208.514 34.862 208.35 35.4685 208.3 36.0961C208.282 36.3573 215.498 68.3571 215.498 68.3571C214.631 68.9518 213.719 69.4459 212.774 69.8325C210.906 66.3904 209.474 62.6309 208.528 58.6788C208.311 61.3215 208.338 63.9852 208.61 66.6205C208.755 68.0983 208.962 69.5662 209.231 71.0185C200.656 73.2492 187.76 72.5151 182.149 63.0274C182.148 62.9881 182.147 62.9488 182.146 62.9095C182.142 62.535 182.029 62.174 181.828 61.8883C181.627 61.6026 181.35 61.41 181.045 61.3435C180.739 61.2769 180.423 61.3406 180.152 61.5236C179.881 61.7066 179.671 61.9975 179.558 62.3465C179.422 62.7651 179.297 63.1274 179.185 63.4156C177.551 56.3704 179.665 48.2169 185.915 33.9854Z" fill="#2F2E41"/>
<path d="M111.409 96.5545C111.092 96.5721 110.778 96.4717 110.509 96.2669C110.241 96.0621 110.031 95.7629 109.909 95.4097C109.786 95.0565 109.757 94.6665 109.824 94.2925C109.892 93.9184 110.053 93.5784 110.286 93.3186C110.326 93.1315 110.354 92.9971 110.393 92.81C110.379 92.7693 110.365 92.7286 110.35 92.6879C108.924 88.5895 104.091 88.6177 102.678 92.7223C101.423 96.3653 99.8249 100.014 99.4315 103.866C99.2582 105.569 99.3313 107.295 99.6475 108.967C96.7 101.218 95.1695 92.7948 95.1596 84.2697C95.159 82.1305 95.2576 79.9928 95.455 77.8668C95.6181 76.1239 95.8444 74.3934 96.1339 72.6754C97.7137 63.3533 101.106 54.6159 106.031 47.1807C108.415 45.6129 110.343 43.202 111.555 40.273C111.994 39.22 112.304 38.0961 112.476 36.936C112.207 36.9785 111.462 32.0421 111.665 31.7392C111.29 31.0538 110.62 30.7131 110.21 30.0442C108.175 26.7178 105.37 27.2986 103.906 31.819C100.779 33.7216 100.748 36.8769 102.667 39.9116C103.888 41.8423 104.056 44.4547 105.127 46.5217C105.017 46.6918 104.902 46.8565 104.792 47.0266C102.778 50.1491 101.022 53.5021 99.5495 57.0375C99.966 53.1164 99.3511 48.3925 98.3029 45.3475C97.1097 41.8779 94.8731 38.9559 92.9036 35.9565C90.5379 32.3537 85.6867 33.926 85.2699 38.4931C85.2659 38.5373 85.2619 38.5815 85.2581 38.6257C85.5506 38.8246 85.837 39.0358 86.1172 39.2591C86.4692 39.5426 86.7419 39.9476 86.8996 40.421C87.0574 40.8945 87.0928 41.4144 87.0012 41.9125C86.9097 42.4107 86.6954 42.8639 86.3865 43.2127C86.0776 43.5616 85.6885 43.7899 85.2701 43.8676L85.2272 43.8755C85.3314 45.1464 85.5157 46.4058 85.7783 47.6429C83.2516 59.4203 88.7065 63.7099 96.4954 63.9026C96.6673 64.0089 96.8349 64.1151 97.0068 64.2161C95.5279 69.2678 94.6002 74.5299 94.2471 79.87C94.0472 83.0205 94.059 86.1854 94.2824 89.3336L94.2691 89.222C93.7048 85.7212 92.1554 82.5625 89.8826 80.2792C86.507 76.9369 81.7378 75.7061 78.0961 73.0196C76.3431 71.7263 74.0967 73.3976 74.4026 75.8472C74.4075 75.8863 74.4125 75.9254 74.4175 75.9645C74.9604 76.231 75.489 76.538 76.0002 76.8837C76.2927 77.0827 76.5791 77.2938 76.8593 77.5172C77.2112 77.8006 77.484 78.2056 77.6417 78.6791C77.7995 79.1526 77.8349 79.6724 77.7433 80.1706C77.6518 80.6688 77.4375 81.122 77.1286 81.4708C76.8197 81.8197 76.4305 82.0479 76.0122 82.1257L75.9693 82.1336C75.9384 82.1389 75.912 82.1443 75.8811 82.1496C76.8087 84.8191 78.1106 87.2762 79.7298 89.4133C81.3096 99.6945 88.0952 100.67 95.3536 97.676H95.358C96.1544 101.847 97.3083 105.907 98.8011 109.791H111.101C111.145 109.626 111.185 109.456 111.224 109.291C110.086 109.378 108.943 109.296 107.821 109.047C108.733 107.697 109.646 106.337 110.559 104.987C110.579 104.962 110.598 104.936 110.616 104.908C111.079 104.217 111.546 103.532 112.009 102.841L112.009 102.84C112.034 100.723 111.832 98.6101 111.409 96.5548L111.409 96.5545Z" fill="#F2F2F2"/>
<path d="M54.0174 21.999C53.7383 22.7831 45.1307 22.6991 44.7365 23.3973C41.697 28.7878 52.6538 51.7227 49.6143 57.1202L49.1909 57.7284C50.1825 57.1776 51.135 56.5299 52.039 55.7918C52.1202 53.5825 52.2014 51.3661 52.2884 49.1569C53.1988 50.5606 53.9336 52.1176 54.4694 53.7782C55.1771 53.177 55.7576 52.0623 58.7908 49.87C60.0188 48.2441 61.4345 46.8395 62.9943 45.6994L54.0174 21.999Z" fill="#2F2E41"/>
<path d="M60.2679 66.1766C59.318 65.4308 58.2343 64.9688 57.1066 64.8289C55.9789 64.689 54.8398 64.8753 53.7838 65.3722C52.7278 65.8692 51.7854 66.6625 51.0347 67.6863C50.284 68.7102 49.7467 69.9351 49.4675 71.2593L36.387 112.339L13.9033 96.9535C13.8046 95.1851 13.2437 93.4998 12.3012 92.1393C11.3587 90.7788 10.0829 89.813 8.65682 89.3805C7.23076 88.948 5.72768 89.0709 4.36316 89.7316C2.99864 90.3924 1.84279 91.557 1.06138 93.0585C0.279975 94.56 -0.0868462 96.3212 0.0135322 98.0895C0.113911 99.8578 0.676333 101.542 1.62013 102.902C2.56393 104.261 3.84061 105.225 5.26708 105.655C6.69355 106.086 8.19651 105.961 9.56041 105.298C14.2953 111.389 34.8227 136.362 43.3209 126.605C50.4641 118.403 60.7726 86.6163 63.254 75.6397C63.6515 73.8845 63.5765 72.0224 63.0399 70.3219C62.5033 68.6213 61.5326 67.1698 60.2679 66.1766Z" fill="#FFB6B6"/>
<path d="M35.7064 128.326L39.8342 150.814L70.0179 154.104L72.7918 134.524L35.7064 128.326Z" fill="#FFB6B6"/>
<path d="M81.8125 185.992C81.7988 186.315 81.7822 186.634 81.7629 186.956C81.4734 191.615 81.1425 196.989 80.7841 202.878C80.2188 212.224 79.5874 222.865 78.9505 233.999H15.6399L27.9183 189.516C27.9183 189.516 32.8761 186.226 30.352 180.699C27.828 175.173 32.7944 179.577 32.8406 171.684C32.8868 163.791 37.3372 155.394 37.3372 155.394L38.0679 143.443L38.4842 143.453L71.4313 144.114L72.0324 144.127L73.0443 154.387C79.1885 163.199 82.323 174.498 81.8125 185.992Z" fill="#2F2E41"/>
<path d="M54.5451 55.2786L69.5689 54.3458L76.5471 67.6359C76.5471 67.6359 89.6768 70.2817 88.7667 88.9297C87.8566 107.578 72.7918 123.942 72.7918 123.942L73.4358 121.28L72.3174 125.132L72.4608 127.295L73.9865 129.586L74.1436 131.954L72.7918 135.702C72.9676 136.042 73.0609 136.434 73.0611 136.834C73.0613 137.235 72.9684 137.627 72.793 137.967C72.6176 138.307 72.3667 138.58 72.0687 138.757C71.7707 138.934 71.4376 139.006 71.1072 138.966L49.3988 136.344C48.9046 134.706 48.508 132.745 46.5269 136.009L44.4819 135.77L35.981 134.777L35.4807 132.581C35.1964 131.332 35.1521 130.022 35.3511 128.75C35.5502 127.478 35.9874 126.277 36.6294 125.24C35.891 122.453 36.0844 119.429 37.1684 116.811L37.2091 116.713L38.1118 115.806C38.1118 115.806 28.2354 97.9217 39.5733 84.4515L44.1237 75.1275L49.2154 67.6402L54.5451 55.2786Z" fill="#145DA0"/>
<path d="M58.2842 47.4334C66.1525 47.4334 72.531 39.7454 72.531 30.2617C72.531 20.778 66.1525 13.09 58.2842 13.09C50.4159 13.09 44.0374 20.778 44.0374 30.2617C44.0374 39.7454 50.4159 47.4334 58.2842 47.4334Z" fill="#FFB6B6"/>
<path d="M69.1048 54.9988C67.9446 53.8303 67.1371 52.2328 66.8077 50.4543C66.5442 52.6137 66.6131 54.8131 67.0108 56.9424C66.2393 57.6415 65.491 58.3057 64.7833 58.907C64.2475 57.2464 63.5127 55.6894 62.6023 54.2856C62.5153 56.4949 62.4341 58.7112 62.3529 60.9205C61.4489 61.6586 60.4964 62.3064 59.5048 62.8572L59.9282 62.2489C62.9677 56.8515 55.1021 46.9166 58.1416 41.5262C58.9943 40.016 55.1427 28.0816 52.2076 27.5432C49.5974 27.0678 49.7076 27.9767 47.1785 28.6409C46.9159 27.3207 46.5082 26.0487 45.9662 24.8585C46.1105 26.1847 46.0772 27.5302 45.8676 28.8436C44.9685 28.8856 44.2612 28.1951 43.3038 28.0187C37.1957 26.893 37.8164 18.9298 39.516 16.4058C41.2213 13.8889 46.8827 13.1338 49.493 12.3158C49.7308 12.0362 50.2702 12.2109 50.5081 11.9453C55.5105 6.42723 62.2009 5.5134 68.2217 7.95912C74.6424 10.5673 78.6456 15.6153 80.7002 23.3973L81.2894 29.6249C81.8181 31.6273 81.1531 40.9442 80.7002 42.9734C78.9397 50.8612 75.1903 46.9236 69.1048 54.9988Z" fill="#2F2E41"/>
<path d="M89.8778 136.354L89.317 83.7031C89.2877 81.4726 88.5321 79.3453 87.213 77.7804C85.894 76.2155 84.1173 75.3384 82.2665 75.3384H82.2665C81.309 75.3384 80.3615 75.5734 79.4819 76.0292C78.6022 76.4849 77.8088 77.1518 77.1499 77.9892C76.4911 78.8266 75.9806 79.817 75.6497 80.8999C75.3188 81.9828 75.1743 83.1357 75.225 84.2881L77.1987 138.958L77.2362 172.238C76.0729 172.833 75.0897 173.844 74.4202 175.136C73.7506 176.428 73.4272 177.936 73.4938 179.457C73.5604 180.978 74.0138 182.437 74.7924 183.636C75.571 184.836 76.6371 185.717 77.8458 186.161C79.0545 186.605 80.3473 186.589 81.5484 186.116C82.7495 185.644 83.8008 184.737 84.5594 183.519C85.318 182.301 85.7472 180.831 85.7886 179.309C85.83 177.787 85.4816 176.286 84.7908 175.011L89.8778 136.354Z" fill="#FFB6B6"/>
<path d="M163.407 204.471C163.407 204.471 162.54 223.276 162.141 234H132.277C131.663 224.24 131.456 217.07 131.456 217.07L129.822 234H99.6356L97.7642 202.645L106.808 175.625C106.808 175.625 155.818 171.528 160.364 176.725C164.907 181.919 163.407 204.471 163.407 204.471Z" fill="#2F2E41"/>
<path d="M136.999 46.2883C146.008 46.2883 153.311 37.4857 153.311 26.627C153.311 15.7683 146.008 6.96564 136.999 6.96564C127.99 6.96564 120.687 15.7683 120.687 26.627C120.687 37.4857 127.99 46.2883 136.999 46.2883Z" fill="#FFB6B6"/>
<path d="M156.013 20.2383C154.337 21.1591 153.251 27.8283 151.935 26.2779C150.618 24.7274 150.706 22.7097 148.93 22.1375C147.496 21.6735 145.953 22.2038 144.645 23.0403C144.412 23.1879 144.186 23.3483 143.965 23.5079C143.819 23.3906 143.674 23.2803 143.519 23.1785C142.349 22.4239 140.983 22.2388 139.704 22.6613C140.715 23.0695 141.594 23.8505 142.217 24.8939C141.779 25.2474 141.336 25.6019 140.882 25.9159C137.094 28.5511 131.703 22.821 127.715 20.6684C130.213 26.3181 128.983 28.6579 126.814 34.5009L126.739 34.8336C126.862 33.3692 123.103 32.2779 123.321 34.3393C123.476 35.803 124.526 39.0563 125.115 40.3486C120.922 34.5053 118.057 27.3548 118.662 19.9784C118.793 18.4288 118.754 16.7939 119.417 15.4489C120.081 14.111 121.465 13.172 122.689 13.6823C122.585 11.3299 123.012 8.98753 123.925 6.90431C124.837 4.82109 126.201 3.07484 127.871 1.85122C129.541 0.627596 131.455 -0.0276666 133.41 -0.0449083C135.364 -0.06215 137.286 0.559278 138.971 1.7533C140.536 2.86053 141.843 4.4265 143.278 5.77727C144.713 7.12803 146.367 8.30545 148.186 8.41696C149.341 8.48406 150.597 8.14441 151.588 8.86495C152.737 9.70104 152.934 11.4515 153.106 13.1359C152.082 13.2577 151.11 13.7448 150.317 14.5352C151.377 14.4048 152.444 14.6807 153.367 15.3236C153.384 15.3332 153.401 15.3446 153.416 15.3578C154.024 18.1416 153.962 18.7587 156.013 20.2383Z" fill="#2F2E41"/>
<path d="M99.708 185.137C113.599 165.539 108.907 140.611 103.394 115.448L104.443 78.2749C104.494 76.4515 104.909 74.6697 105.652 73.08C106.395 71.4904 107.445 70.1396 108.712 69.1417L122.893 57.975L128.413 48.3562L143.628 50.19L152.065 60.9444L161.404 69.5378C163.749 71.6954 165.533 74.6162 166.546 77.9557C167.559 81.2952 167.759 84.9142 167.122 88.3861L158.185 137.101C158.185 137.101 161.923 162.354 159.642 165.144C157.361 167.933 151.484 165.145 156.145 168.276C161.738 172.033 166.823 171.34 163.993 174.751C161.163 178.163 164.745 182.905 164.745 182.905L99.708 185.137Z" fill="#145DA0"/>
<path d="M105.647 213.62L107.963 193.734L98.7225 190.554L96.8947 211.685C96.1299 212.53 95.5759 213.615 95.295 214.819C95.014 216.023 95.0173 217.297 95.3043 218.499C95.5913 219.701 96.1508 220.782 96.9198 221.622C97.6888 222.461 98.6369 223.026 99.6574 223.251C100.678 223.477 101.73 223.355 102.697 222.899C103.663 222.444 104.504 221.672 105.127 220.672C105.749 219.671 106.127 218.481 106.219 217.235C106.311 215.99 106.113 214.738 105.647 213.62Z" fill="#FFB6B6"/>
<path d="M123.24 61.5599C123.24 61.5599 96.937 71.8781 96.3098 79.4279C95.6826 86.9776 95.8906 91.5993 93.1146 121.81L93.2608 203.19C93.2608 203.19 110.895 207.741 109.087 202.875C107.278 198.01 107.909 195.72 107.909 195.72C107.909 195.72 111.69 193.922 110.744 188.209C109.797 182.496 114.544 154.185 114.544 154.185L117.539 103.41L123.24 61.5599Z" fill="#145DA0"/>
<path d="M155.672 212.567L154.439 192.541L163.833 190.096L164.511 211.325C165.228 212.229 165.722 213.356 165.937 214.579C166.152 215.802 166.08 217.074 165.728 218.25C165.377 219.427 164.76 220.462 163.947 221.239C163.134 222.016 162.157 222.505 161.127 222.65C160.096 222.794 159.052 222.59 158.113 222.059C157.174 221.528 156.376 220.692 155.809 219.644C155.242 218.597 154.929 217.379 154.905 216.129C154.881 214.879 155.146 213.645 155.672 212.567H155.672Z" fill="#FFB6B6"/>
<path d="M146.363 59.4459C146.363 59.4459 172.05 71.8144 172.267 79.3974C172.483 86.9804 172.025 91.5758 173.157 121.941L168.597 203.135C168.597 203.135 150.754 206.287 152.822 201.574C154.891 196.861 154.385 194.527 154.385 194.527C154.385 194.527 150.71 192.435 151.964 186.809C153.219 181.183 150.018 152.558 150.018 152.558L149.782 101.655L146.363 59.4459Z" fill="#145DA0"/>
</g>
<defs>
<clipPath id="clip0_89_91">
<rect width="255" height="234" fill="white"/>
</clipPath>
</defs>
</svg>
