<svg width="255" height="234" viewBox="0 0 255 234" fill="none" xmlns="http://www.w3.org/2000/svg">
<g clip-path="url(#clip0_314_50)">
<path d="M163.373 186.873L165.823 192.38C163.831 192.062 161.979 193.767 161.937 195.957C161.896 198.146 163.672 200.424 165.664 200.736C165.284 202.436 163.641 203.185 162.215 203.872C160.789 204.559 159.252 205.699 159.358 207.51C159.443 208.965 160.643 210.249 161.917 210.765C163.192 211.281 164.529 211.202 165.819 211.115C163.864 213.166 163.673 217.02 165.39 219.785C167.108 222.55 170.538 223.911 173.106 222.847C171.292 225.109 171.686 229.253 173.938 231.588C176.208 233.942 179.498 234.169 182.375 233.921C189.7 233.301 196.679 230.528 202.439 225.952C204.638 224.2 206.692 222.141 207.947 219.454C209.201 216.768 209.571 213.366 208.402 210.309C208.717 214.139 212.542 217.164 215.983 217.333C219.423 217.502 222.427 215.56 224.98 213.345C228.375 210.399 231.518 206.27 231.052 201.175C230.821 198.653 229.722 196.228 228.644 193.878L226.554 189.323C225.711 187.484 224.848 185.614 223.578 184.071C222.308 182.528 220.546 181.334 218.782 181.345C219.185 179.498 219.59 177.583 219.252 175.621C218.914 173.659 217.62 171.627 215.86 171.168C213.62 170.583 211.722 172.655 209.47 172.459C207.302 172.271 205.511 170.091 203.406 169.227C202.539 168.851 201.582 168.737 200.652 168.899C199.722 169.06 198.858 169.49 198.168 170.135C196.834 171.441 196.277 173.647 196.756 175.734C197.176 177.562 198.292 179.175 198.969 180.938C199.647 182.701 199.752 184.968 198.451 185.931C196.881 187.094 194.491 185.512 193.264 183.599C192.037 181.686 191.333 179.37 189.782 177.761C187.951 175.862 185.085 175.417 183.2 176.739C181.315 178.061 180.594 181.021 181.544 183.537C182.321 185.595 184.101 187.676 183.484 189.614C182.831 191.661 179.976 191.402 178.254 189.955C176.532 188.508 175.389 186.328 173.687 184.848C171.96 183.346 169.704 182.687 167.723 183.108C166.718 183.341 165.789 183.825 165.019 184.514C164.25 185.202 163.667 186.074 163.323 187.049" fill="#E6E6E6"/>
<path d="M203.045 171.397L197.961 173.765C197.197 174.143 196.33 174.26 195.493 174.099C194.755 173.924 194.256 173.471 194.125 172.857L192.942 167.319C192.719 166.274 193.582 165.038 194.995 164.38L197.802 163.073C199.215 162.415 200.714 162.551 201.367 163.396L204.827 167.873C205.211 168.37 205.234 169.044 204.891 169.722C204.475 170.468 203.827 171.056 203.045 171.397Z" fill="#3F3D56"/>
<path d="M45.3925 69.0389C50.1724 55.9265 57.6316 43.9592 67.2925 33.9032C75.4889 25.3749 88.2454 25.7293 88.2454 25.7293L88.3183 25.6387C91.3885 21.844 95.5083 19.0425 100.161 17.5857C104.814 16.1289 109.792 16.0817 114.471 17.45C115.688 17.7998 116.623 17.9549 117.068 17.7991C125.18 14.9535 124.799 8.53084 131.798 3.35678C144.052 -5.70269 184.698 4.67476 190.43 21.3453C195.075 34.8563 215.811 41.405 223.558 51.7399C224.769 53.3559 225.958 54.9906 227.123 56.6441C227.67 57.4122 228.21 58.1862 228.745 58.9659C234.233 66.9326 239.157 75.2756 243.48 83.9335C246.315 89.59 248.778 95.4259 250.855 101.404C258.934 125.076 256.172 142.713 233.895 138.356C231.258 137.839 228.684 137.376 226.174 136.968C222.539 136.373 219.031 135.885 215.649 135.502C211.096 134.983 206.763 134.643 202.653 134.482C201.27 134.426 199.914 134.389 198.582 134.37C178.895 134.096 164.292 137.81 153.167 143.575C151.281 144.55 149.494 145.581 147.806 146.669C145.227 148.321 142.764 150.149 140.436 152.14C137.214 154.912 134.243 157.963 131.557 161.259L131.409 161.44C118.397 177.393 114.115 195.053 105.064 198.163C66.3719 211.457 41.901 163.264 39.3915 116.121C39.2647 113.745 39.1947 111.377 39.1815 109.014C39.1736 107.959 39.1788 106.906 39.197 105.856C39.2367 103.116 39.3572 100.394 39.559 97.7045C39.6344 96.6763 39.7218 95.6536 39.8213 94.6363C39.9309 93.5393 40.0501 92.4488 40.1879 91.3651C41.1722 83.4218 42.8941 75.8643 45.3925 69.0389Z" fill="#145DA0"/>
<path d="M165.318 94.9767C162.228 96.4187 162.177 102.877 163.146 104.97L164.902 108.758L176.094 103.546L174.338 99.7578C173.368 97.6659 168.41 93.5397 165.318 94.9767Z" fill="#3F3D56"/>
<path d="M135.24 149.36C135.044 149.36 134.849 149.312 134.675 149.221C134.5 149.13 134.35 148.998 134.237 148.836C134.124 148.674 134.052 148.488 134.026 148.292C134.001 148.096 134.023 147.897 134.09 147.712C134.145 147.56 134.229 147.421 134.338 147.302C134.447 147.184 134.578 147.088 134.724 147.021L192.526 120.104C192.672 120.036 192.829 119.997 192.99 119.99C193.15 119.984 193.311 120.009 193.461 120.064C193.612 120.119 193.751 120.204 193.869 120.313C193.988 120.422 194.083 120.553 194.151 120.699C194.287 120.994 194.302 121.331 194.19 121.636C194.079 121.942 193.851 122.191 193.557 122.328H193.557L135.755 149.245C135.594 149.32 135.418 149.36 135.24 149.36Z" fill="#3F3D56"/>
<path d="M180.454 105.961L163.932 113.655L189.85 169.567L206.372 161.873L180.454 105.961Z" fill="#E6E6E6"/>
<path d="M118.431 35.5777C115.341 37.0196 115.29 43.4781 116.259 45.5708L118.015 49.3587L129.207 44.1466L127.451 40.3587C126.48 38.2669 121.523 34.1406 118.431 35.5777Z" fill="#3F3D56"/>
<path d="M187.665 177.825L182.581 180.193C181.817 180.571 180.95 180.688 180.113 180.526C179.375 180.351 178.876 179.899 178.745 179.285L177.562 173.746C177.339 172.702 178.202 171.466 179.615 170.808L182.423 169.5C183.835 168.842 185.335 168.978 185.987 169.823L189.447 174.301C189.831 174.798 189.854 175.471 189.511 176.15C189.095 176.895 188.447 177.484 187.665 177.825Z" fill="#3F3D56"/>
<path d="M172.034 185.598L166.95 187.966C166.185 188.344 165.318 188.461 164.482 188.299C163.743 188.124 163.245 187.672 163.114 187.058L161.931 181.52C161.707 180.475 162.57 179.239 163.983 178.581L166.791 177.273C168.204 176.616 169.703 176.752 170.355 177.596L173.815 182.074C174.199 182.571 174.222 183.245 173.88 183.923C173.463 184.668 172.815 185.257 172.034 185.598Z" fill="#3F3D56"/>
<path d="M137.976 56.0729L121.453 63.7671L173.843 176.786L190.366 169.092L137.976 56.0729Z" fill="#E6E6E6"/>
<path d="M155.119 114.334L153.265 110.245L154.333 109.752L156.181 113.828L182.945 173.306L181.879 173.803" fill="#3F3D56"/>
<path d="M176.03 110.936L174.176 106.847L175.243 106.353L177.091 110.429L203.855 169.907L202.789 170.404" fill="#3F3D56"/>
<path d="M145.774 65.1176L123.387 75.5428C121.962 73.3203 117.665 61.9311 118.63 58.552L117.906 55.3296L133.364 48.1312L135.433 50.6823C138.504 51.6268 144.483 62.3244 145.774 65.1176Z" fill="#E6E6E6"/>
<path d="M134.01 48.2691L118.058 55.6974C117.469 55.9715 116.842 55.8708 116.657 55.4722C116.631 55.4148 116.615 55.3532 116.609 55.2901L115.783 46.4627C115.748 46.0847 116.071 45.6564 116.563 45.4268L127.142 40.5006C127.635 40.271 128.17 40.3001 128.435 40.571L134.634 46.8964C134.951 47.2199 134.779 47.7737 134.249 48.1333C134.173 48.1849 134.093 48.2303 134.01 48.2691Z" fill="#E6E6E6"/>
<path d="M146.521 117.429C146.348 117.429 146.176 117.409 146.008 117.368C145.772 117.319 145.55 117.216 145.359 117.068C145.168 116.919 145.013 116.729 144.907 116.511L135.155 95.4728C134.751 94.6019 135.293 93.4881 136.363 92.9899L150.643 86.3399C151.713 85.8415 152.911 86.1452 153.315 87.016L163.068 108.055C163.165 108.276 163.211 108.517 163.201 108.759C163.191 109.001 163.126 109.238 163.011 109.451C162.76 109.933 162.355 110.316 161.86 110.538L147.58 117.187C147.248 117.344 146.887 117.426 146.521 117.429Z" fill="#3F3D56"/>
<path d="M148.474 120.613L131.951 128.307L157.869 184.219L174.392 176.525L148.474 120.613Z" fill="#E6E6E6"/>
<path d="M128.119 49.1913L123.273 51.4477C122.338 51.8831 121.077 51.1575 120.462 49.8306C119.847 48.5036 120.107 47.0694 121.042 46.634L125.887 44.3777C126.822 43.9423 128.084 44.6678 128.699 45.9948C129.314 47.3217 129.054 48.7559 128.119 49.1913Z" fill="#3F3D56"/>
<path d="M133.66 109.479C130.57 110.921 130.519 117.379 131.488 119.472L133.244 123.26L144.436 118.048L142.68 114.26C141.71 112.168 136.752 108.042 133.66 109.479Z" fill="#3F3D56"/>
<path d="M82.331 96.5867C81.2397 97.3155 80.1228 95.5809 81.2351 94.8845C82.3263 94.1558 83.4432 95.8903 82.331 96.5867Z" fill="#E6E6E6"/>
<path d="M195.926 71.6632C194.834 72.392 193.718 70.6574 194.83 69.961C195.921 69.2322 197.038 70.9668 195.926 71.6632Z" fill="#E6E6E6"/>
<path d="M118.5 91.4887C117.409 92.2175 116.292 90.483 117.404 89.7865C118.496 89.0578 119.613 90.7924 118.5 91.4887Z" fill="#E6E6E6"/>
<path d="M82.331 159.462C81.2397 160.191 80.1228 158.456 81.2351 157.76C82.3263 157.031 83.4432 158.766 82.331 159.462Z" fill="#E6E6E6"/>
<path d="M137.998 17.5678C136.907 18.2966 135.79 16.562 136.902 15.8656C137.993 15.1368 139.11 16.8714 137.998 17.5678Z" fill="#E6E6E6"/>
<path d="M84.3091 50.988C83.2178 51.7168 82.1008 49.9822 83.2131 49.2858C84.3043 48.557 85.4213 50.2916 84.3091 50.988Z" fill="#E6E6E6"/>
<path d="M161.53 41.4071L160.836 41.2544L160.988 40.5583L160.525 40.4566L160.373 41.1527L159.679 41.0004L159.577 41.4643L160.271 41.6169L160.119 42.3128L160.582 42.4145L160.735 41.7183L161.429 41.871L161.53 41.4071Z" fill="#E6E6E6"/>
<path d="M48.4733 99.4047L47.7791 99.2521L47.9311 98.5562L47.4682 98.4545L47.3159 99.1504L46.6213 98.998L46.5199 99.4619L47.2145 99.6146L47.0624 100.311L47.5253 100.412L47.6776 99.7163L48.3719 99.8686L48.4733 99.4047Z" fill="#E6E6E6"/>
<path d="M190.859 128.99C190.281 129.258 189.621 129.286 189.022 129.066C188.424 128.847 187.937 128.399 187.668 127.821L184.811 121.656C184.543 121.077 184.516 120.416 184.735 119.817C184.954 119.218 185.401 118.73 185.978 118.461C186.556 118.193 187.216 118.164 187.814 118.383C188.412 118.602 188.898 119.049 189.167 119.628L192.025 125.792C192.293 126.371 192.32 127.033 192.101 127.633C191.883 128.232 191.436 128.72 190.859 128.99Z" fill="#3F3D56"/>
<path d="M142.256 151.647C141.678 151.916 141.018 151.943 140.42 151.724C139.822 151.505 139.335 151.057 139.066 150.478L136.208 144.314C135.941 143.735 135.913 143.073 136.132 142.474C136.351 141.875 136.798 141.388 137.376 141.119C137.953 140.85 138.613 140.822 139.211 141.041C139.809 141.259 140.296 141.707 140.565 142.285L143.422 148.45C143.69 149.029 143.717 149.691 143.499 150.29C143.28 150.89 142.833 151.378 142.256 151.647Z" fill="#3F3D56"/>
<path d="M186.457 115.521L167.297 124.444C166.077 122.541 162.399 112.794 163.225 109.902L163.63 106.667L175.071 101.041L177.606 103.166C181.178 101.956 186.428 110.827 186.457 115.521Z" fill="#E6E6E6"/>
<path d="M177.561 114.902L172.716 117.159C171.781 117.594 170.358 116.521 169.545 114.766C168.732 113.012 168.831 111.23 169.766 110.794L174.611 108.538C175.546 108.103 176.969 109.176 177.782 110.93C178.595 112.685 178.496 114.467 177.561 114.902Z" fill="#3F3D56"/>
<path d="M136.469 126.513L134.615 122.424L135.683 121.93L137.531 126.006L164.295 185.485L163.229 185.981" fill="#3F3D56"/>
<path d="M154.799 130.023L135.639 138.945C132.812 137.483 128.492 127.911 131.567 124.404L131.972 121.168L143.413 115.543L145.948 117.668C148.576 118.477 153.694 127.632 154.799 130.023Z" fill="#E6E6E6"/>
<path d="M145.509 128.554L140.664 130.81C139.729 131.245 138.394 130.363 137.69 128.843C136.985 127.323 137.173 125.732 138.108 125.296L142.953 123.04C143.888 122.605 145.222 123.487 145.927 125.007C146.631 126.527 146.444 128.118 145.509 128.554Z" fill="#3F3D56"/>
<path d="M48.4025 87.1885C64.4768 87.1885 77.5076 74.1278 77.5076 58.0166C77.5076 41.9054 64.4768 28.8447 48.4025 28.8447C32.3282 28.8447 19.2974 41.9054 19.2974 58.0166C19.2974 74.1278 32.3282 87.1885 48.4025 87.1885Z" fill="#3C9CD6"/>
<path opacity="0.3" d="M167.737 88.4004L185.425 36.6248L166.003 87.7806C165.907 87.902 165.841 88.0447 165.811 88.1967C165.781 88.3487 165.788 88.5057 165.83 88.6546C165.873 88.8036 165.95 88.9402 166.056 89.0532C166.162 89.1662 166.293 89.2523 166.438 89.3044C166.584 89.3564 166.74 89.3729 166.893 89.3525C167.046 89.332 167.193 89.2753 167.32 89.1869C167.447 89.0985 167.551 88.9811 167.623 88.8443C167.696 88.7075 167.735 88.5553 167.737 88.4004H167.737Z" fill="#F0F0F0"/>
<path d="M212.823 57.5388C209.361 58.6922 205.522 59.8251 201.308 60.9377C179.509 66.6902 150.289 71.1774 119.032 73.573C87.7751 75.9686 58.2145 75.9859 35.7962 73.6224C24.8755 72.4708 16.2378 70.8147 10.1233 68.6997C3.64965 66.4607 0.248085 63.7626 0.0129042 60.6806C-0.445075 54.6764 11.3759 49.3918 21.3732 46.0159L21.644 46.8211C7.91506 51.4571 0.533264 56.3562 0.858281 60.6159C1.27205 66.0413 14.0388 70.4738 35.8848 72.7773C58.2539 75.1357 87.7599 75.1176 118.968 72.726C150.175 70.3341 179.341 65.8557 201.092 60.116C222.334 54.5108 234.281 48.1841 233.867 42.7586C233.523 38.254 224.664 34.4006 208.922 31.9077L209.054 31.0685C220.493 32.8799 234.229 36.3671 234.712 42.6938C234.947 45.7758 231.994 48.9608 225.936 52.1602C222.482 53.984 218.094 55.7832 212.823 57.5388Z" fill="#3F3D56"/>
<path d="M221.376 109.278C223.046 109.278 224.4 107.921 224.4 106.247C224.4 104.573 223.046 103.216 221.376 103.216C219.705 103.216 218.351 104.573 218.351 106.247C218.351 107.921 219.705 109.278 221.376 109.278Z" fill="#3C9CD6"/>
<path d="M240.591 191.412C242.261 191.412 243.615 190.055 243.615 188.381C243.615 186.707 242.261 185.35 240.591 185.35C238.92 185.35 237.566 186.707 237.566 188.381C237.566 190.055 238.92 191.412 240.591 191.412Z" fill="#F2F2F2"/>
<path d="M137.451 209.868C140.708 209.868 143.347 207.222 143.347 203.958C143.347 200.695 140.708 198.049 137.451 198.049C134.195 198.049 131.555 200.695 131.555 203.958C131.555 207.222 134.195 209.868 137.451 209.868Z" fill="#F2F2F2"/>
<path d="M92.5219 131.653C94.1921 131.653 95.5461 130.295 95.5461 128.621C95.5461 126.947 94.1921 125.59 92.5219 125.59C90.8517 125.59 89.4977 126.947 89.4977 128.621C89.4977 130.295 90.8517 131.653 92.5219 131.653Z" fill="#3F3D56"/>
<path d="M194.192 135.598L207.24 138.983L215.243 154.738L201.713 155.27L194.192 135.598Z" fill="#E6E6E6"/>
<path d="M164.075 112.885L171.257 120.087L189.496 159.612L186.138 162.52L164.075 112.885Z" fill="#CCCCCC"/>
<path d="M148.46 119.413L149.024 129.58L166.239 169.563L170.641 168.995L148.46 119.413Z" fill="#CCCCCC"/>
<path d="M147.99 160.484L140.963 172.012L146.144 188.911L156.235 179.863L147.99 160.484Z" fill="#E6E6E6"/>
<path d="M210.067 167.568C206.418 167.568 202.419 167.429 198.07 167.153C175.573 165.721 146.433 160.743 116.017 153.136C85.6014 145.528 57.5439 136.201 37.0134 126.871C27.0124 122.326 19.3367 118.024 14.1997 114.084C8.761 109.913 6.38203 106.278 7.12861 103.279C8.58329 97.4362 21.4639 96.1579 32.0132 96.1145L32.0168 96.9642C17.5298 97.0238 8.98315 99.3395 7.95123 103.485C6.63674 108.764 17.3572 117.006 37.3635 126.097C57.8489 135.406 85.8547 144.716 116.222 152.311C146.59 159.906 175.676 164.876 198.124 166.305C220.045 167.701 233.373 165.473 234.687 160.194C235.778 155.81 228.584 149.353 214.429 142.011L214.819 141.257C225.104 146.591 237.042 154.243 235.51 160.399C234.763 163.398 230.959 165.487 224.202 166.608C220.351 167.247 215.621 167.568 210.067 167.568Z" fill="#3F3D56"/>
</g>
<defs>
<clipPath id="clip0_314_50">
<rect width="255" height="234" fill="white"/>
</clipPath>
</defs>
</svg>
